<mxfile host="app.diagrams.net" modified="2022-06-16T09:57:54.371Z" agent="5.0 (Windows NT 10.0; Win64; x64) AppleWebKit/537.36 (KHTML, like Gecko) Chrome/102.0.0.0 Safari/537.36" etag="ql-xv2UD6h5Qr0UVCbu3" version="20.0.1" type="github">
  <diagram id="P8wc8JNe3x7fMDw0LXG7" name="Page-1">
    <mxGraphModel dx="3122" dy="1832" grid="1" gridSize="10" guides="1" tooltips="1" connect="1" arrows="1" fold="1" page="1" pageScale="1" pageWidth="850" pageHeight="1100" math="0" shadow="0">
      <root>
        <mxCell id="0" />
        <mxCell id="1" parent="0" />
        <mxCell id="MqZcO9cvdvLjZUqEfx9N-1" value="Neuron Saas Business" style="rounded=1;whiteSpace=wrap;html=1;fillColor=#0050ef;strokeColor=#001DBC;fontColor=#ffffff;" parent="1" vertex="1">
          <mxGeometry x="356" y="270" width="100" height="40" as="geometry" />
        </mxCell>
        <mxCell id="MqZcO9cvdvLjZUqEfx9N-4" value="Building Insight" style="rounded=1;whiteSpace=wrap;html=1;fillColor=#1ba1e2;strokeColor=#006EAF;fontColor=#ffffff;" parent="1" vertex="1">
          <mxGeometry x="70" y="115" width="100" height="40" as="geometry" />
        </mxCell>
        <mxCell id="MqZcO9cvdvLjZUqEfx9N-5" value="BI" style="rounded=1;whiteSpace=wrap;html=1;fillColor=#ffe6cc;strokeColor=#d79b00;" parent="1" vertex="1">
          <mxGeometry x="190" y="115" width="100" height="40" as="geometry" />
        </mxCell>
        <mxCell id="MqZcO9cvdvLjZUqEfx9N-6" value="Login" style="rounded=1;whiteSpace=wrap;html=1;fillColor=#e1d5e7;strokeColor=#9673a6;" parent="1" vertex="1">
          <mxGeometry x="350" y="1040" width="100" height="40" as="geometry" />
        </mxCell>
        <mxCell id="MqZcO9cvdvLjZUqEfx9N-7" value="" style="endArrow=none;dashed=1;html=1;rounded=0;" parent="1" edge="1">
          <mxGeometry width="50" height="50" relative="1" as="geometry">
            <mxPoint x="-960" y="1010" as="sourcePoint" />
            <mxPoint x="863" y="1010" as="targetPoint" />
          </mxGeometry>
        </mxCell>
        <mxCell id="MqZcO9cvdvLjZUqEfx9N-9" value="Dashboard Builder" style="rounded=1;whiteSpace=wrap;html=1;fillColor=#ffcccc;strokeColor=#36393d;" parent="1" vertex="1">
          <mxGeometry x="-50" y="115" width="100" height="40" as="geometry" />
        </mxCell>
        <mxCell id="MqZcO9cvdvLjZUqEfx9N-10" value="Smart Property" style="rounded=1;whiteSpace=wrap;html=1;fillColor=#ffe6cc;strokeColor=#d79b00;" parent="1" vertex="1">
          <mxGeometry x="200" y="270" width="100" height="40" as="geometry" />
        </mxCell>
        <mxCell id="MqZcO9cvdvLjZUqEfx9N-11" value="Digital Twins" style="rounded=1;whiteSpace=wrap;html=1;fillColor=#ffe6cc;strokeColor=#d79b00;" parent="1" vertex="1">
          <mxGeometry x="200" y="470" width="100" height="40" as="geometry" />
        </mxCell>
        <mxCell id="MqZcO9cvdvLjZUqEfx9N-12" value="Sustainability" style="rounded=1;whiteSpace=wrap;html=1;fillColor=#ffe6cc;strokeColor=#d79b00;" parent="1" vertex="1">
          <mxGeometry x="200" y="647" width="100" height="40" as="geometry" />
        </mxCell>
        <mxCell id="MqZcO9cvdvLjZUqEfx9N-13" value="Advanced Analytic" style="rounded=1;whiteSpace=wrap;html=1;fillColor=#ffe6cc;strokeColor=#d79b00;" parent="1" vertex="1">
          <mxGeometry x="520" y="-35" width="100" height="40" as="geometry" />
        </mxCell>
        <mxCell id="MqZcO9cvdvLjZUqEfx9N-14" value="Smart Tenant" style="rounded=1;whiteSpace=wrap;html=1;fillColor=#ffe6cc;strokeColor=#d79b00;" parent="1" vertex="1">
          <mxGeometry x="520" y="270" width="100" height="40" as="geometry" />
        </mxCell>
        <mxCell id="MqZcO9cvdvLjZUqEfx9N-15" value="IOT Platform" style="rounded=1;whiteSpace=wrap;html=1;fillColor=#ffe6cc;strokeColor=#d79b00;" parent="1" vertex="1">
          <mxGeometry x="520" y="466" width="100" height="40" as="geometry" />
        </mxCell>
        <mxCell id="MqZcO9cvdvLjZUqEfx9N-17" value="Asset Management" style="rounded=1;whiteSpace=wrap;html=1;fillColor=#f9f7ed;strokeColor=#36393d;" parent="1" vertex="1">
          <mxGeometry x="70" y="270" width="100" height="40" as="geometry" />
        </mxCell>
        <mxCell id="MqZcO9cvdvLjZUqEfx9N-18" value="Dashboard Builder&lt;br&gt;[ BIM-AM ]" style="rounded=1;whiteSpace=wrap;html=1;fillColor=#f8cecc;strokeColor=#b85450;" parent="1" vertex="1">
          <mxGeometry x="70" y="395" width="100" height="45" as="geometry" />
        </mxCell>
        <mxCell id="MqZcO9cvdvLjZUqEfx9N-19" value="BIM-AR" style="rounded=1;whiteSpace=wrap;html=1;fillColor=#ffcd28;strokeColor=#d79b00;gradientColor=#ffa500;" parent="1" vertex="1">
          <mxGeometry x="70" y="470" width="100" height="40" as="geometry" />
        </mxCell>
        <mxCell id="MqZcO9cvdvLjZUqEfx9N-20" value="Dashboard Builder&lt;br&gt;[Control Room]" style="rounded=1;whiteSpace=wrap;html=1;fillColor=#f8cecc;strokeColor=#b85450;" parent="1" vertex="1">
          <mxGeometry x="70" y="527" width="100" height="53" as="geometry" />
        </mxCell>
        <mxCell id="MqZcO9cvdvLjZUqEfx9N-21" value="Neuron Health" style="rounded=1;whiteSpace=wrap;html=1;fillColor=#dae8fc;strokeColor=#6c8ebf;" parent="1" vertex="1">
          <mxGeometry x="70" y="647" width="100" height="40" as="geometry" />
        </mxCell>
        <mxCell id="MqZcO9cvdvLjZUqEfx9N-22" value="Carbon Assessment" style="rounded=1;whiteSpace=wrap;html=1;fillColor=#dae8fc;strokeColor=#6c8ebf;" parent="1" vertex="1">
          <mxGeometry x="-50" y="647" width="100" height="40" as="geometry" />
        </mxCell>
        <mxCell id="MqZcO9cvdvLjZUqEfx9N-23" value="IAQ Monitoring" style="rounded=1;whiteSpace=wrap;html=1;fillColor=#dae8fc;strokeColor=#6c8ebf;" parent="1" vertex="1">
          <mxGeometry x="-180" y="647" width="100" height="40" as="geometry" />
        </mxCell>
        <mxCell id="MqZcO9cvdvLjZUqEfx9N-24" value="Model Management System" style="rounded=1;whiteSpace=wrap;html=1;fillColor=#e1d5e7;strokeColor=#9673a6;" parent="1" vertex="1">
          <mxGeometry x="-180" y="1040" width="180" height="40" as="geometry" />
        </mxCell>
        <mxCell id="MqZcO9cvdvLjZUqEfx9N-27" value="FDD Testing" style="rounded=1;whiteSpace=wrap;html=1;fillColor=#dae8fc;strokeColor=#6c8ebf;" parent="1" vertex="1">
          <mxGeometry x="660" y="-90" width="100" height="40" as="geometry" />
        </mxCell>
        <mxCell id="MqZcO9cvdvLjZUqEfx9N-28" value="Chiller AI Optimization" style="rounded=1;whiteSpace=wrap;html=1;fillColor=#dae8fc;strokeColor=#6c8ebf;" parent="1" vertex="1">
          <mxGeometry x="660" y="-35" width="100" height="40" as="geometry" />
        </mxCell>
        <mxCell id="MqZcO9cvdvLjZUqEfx9N-29" value="Rule-based Insight &amp;amp; Fault Detection" style="rounded=1;whiteSpace=wrap;html=1;fillColor=#e51400;strokeColor=#B20000;fontColor=#ffffff;" parent="1" vertex="1">
          <mxGeometry x="660" y="30" width="100" height="40" as="geometry" />
        </mxCell>
        <mxCell id="MqZcO9cvdvLjZUqEfx9N-31" value="" style="edgeStyle=segmentEdgeStyle;endArrow=classic;html=1;rounded=0;exitX=1;exitY=0.5;exitDx=0;exitDy=0;entryX=0;entryY=0.5;entryDx=0;entryDy=0;" parent="1" source="MqZcO9cvdvLjZUqEfx9N-5" target="MqZcO9cvdvLjZUqEfx9N-1" edge="1">
          <mxGeometry width="50" height="50" relative="1" as="geometry">
            <mxPoint x="400" y="380" as="sourcePoint" />
            <mxPoint x="450" y="330" as="targetPoint" />
            <Array as="points">
              <mxPoint x="320" y="135" />
              <mxPoint x="320" y="290" />
            </Array>
          </mxGeometry>
        </mxCell>
        <mxCell id="MqZcO9cvdvLjZUqEfx9N-32" value="" style="edgeStyle=elbowEdgeStyle;elbow=horizontal;endArrow=classic;html=1;rounded=0;exitX=1;exitY=0.5;exitDx=0;exitDy=0;entryX=0;entryY=0.5;entryDx=0;entryDy=0;" parent="1" source="MqZcO9cvdvLjZUqEfx9N-10" target="MqZcO9cvdvLjZUqEfx9N-1" edge="1">
          <mxGeometry width="50" height="50" relative="1" as="geometry">
            <mxPoint x="400" y="380" as="sourcePoint" />
            <mxPoint x="340" y="290" as="targetPoint" />
          </mxGeometry>
        </mxCell>
        <mxCell id="MqZcO9cvdvLjZUqEfx9N-33" value="" style="edgeStyle=segmentEdgeStyle;endArrow=classic;html=1;rounded=0;exitX=1;exitY=0.5;exitDx=0;exitDy=0;entryX=0;entryY=0.5;entryDx=0;entryDy=0;" parent="1" source="MqZcO9cvdvLjZUqEfx9N-11" target="MqZcO9cvdvLjZUqEfx9N-1" edge="1">
          <mxGeometry width="50" height="50" relative="1" as="geometry">
            <mxPoint x="400" y="380" as="sourcePoint" />
            <mxPoint x="450" y="330" as="targetPoint" />
            <Array as="points">
              <mxPoint x="320" y="490" />
              <mxPoint x="320" y="290" />
            </Array>
          </mxGeometry>
        </mxCell>
        <mxCell id="MqZcO9cvdvLjZUqEfx9N-34" value="" style="edgeStyle=segmentEdgeStyle;endArrow=classic;html=1;rounded=0;exitX=1;exitY=0.5;exitDx=0;exitDy=0;entryX=0;entryY=0.5;entryDx=0;entryDy=0;" parent="1" source="MqZcO9cvdvLjZUqEfx9N-12" target="MqZcO9cvdvLjZUqEfx9N-1" edge="1">
          <mxGeometry width="50" height="50" relative="1" as="geometry">
            <mxPoint x="400" y="380" as="sourcePoint" />
            <mxPoint x="450" y="330" as="targetPoint" />
            <Array as="points">
              <mxPoint x="320" y="667" />
              <mxPoint x="320" y="290" />
            </Array>
          </mxGeometry>
        </mxCell>
        <mxCell id="MqZcO9cvdvLjZUqEfx9N-35" value="" style="edgeStyle=elbowEdgeStyle;elbow=horizontal;endArrow=classic;html=1;rounded=0;exitX=0;exitY=0.5;exitDx=0;exitDy=0;" parent="1" source="MqZcO9cvdvLjZUqEfx9N-13" target="MqZcO9cvdvLjZUqEfx9N-1" edge="1">
          <mxGeometry width="50" height="50" relative="1" as="geometry">
            <mxPoint x="400" y="380" as="sourcePoint" />
            <mxPoint x="450" y="330" as="targetPoint" />
          </mxGeometry>
        </mxCell>
        <mxCell id="MqZcO9cvdvLjZUqEfx9N-36" value="" style="edgeStyle=elbowEdgeStyle;elbow=horizontal;endArrow=classic;html=1;rounded=0;exitX=0;exitY=0.5;exitDx=0;exitDy=0;entryX=1;entryY=0.5;entryDx=0;entryDy=0;" parent="1" source="MqZcO9cvdvLjZUqEfx9N-15" target="MqZcO9cvdvLjZUqEfx9N-1" edge="1">
          <mxGeometry width="50" height="50" relative="1" as="geometry">
            <mxPoint x="400" y="380" as="sourcePoint" />
            <mxPoint x="450" y="330" as="targetPoint" />
          </mxGeometry>
        </mxCell>
        <mxCell id="MqZcO9cvdvLjZUqEfx9N-37" value="" style="edgeStyle=elbowEdgeStyle;elbow=horizontal;endArrow=classic;html=1;rounded=0;exitX=0;exitY=0.5;exitDx=0;exitDy=0;entryX=1;entryY=0.5;entryDx=0;entryDy=0;" parent="1" source="MqZcO9cvdvLjZUqEfx9N-14" target="MqZcO9cvdvLjZUqEfx9N-1" edge="1">
          <mxGeometry width="50" height="50" relative="1" as="geometry">
            <mxPoint x="400" y="380" as="sourcePoint" />
            <mxPoint x="460" y="280" as="targetPoint" />
            <Array as="points">
              <mxPoint x="460" y="280" />
            </Array>
          </mxGeometry>
        </mxCell>
        <mxCell id="MqZcO9cvdvLjZUqEfx9N-38" value="" style="edgeStyle=segmentEdgeStyle;endArrow=classic;html=1;rounded=0;exitX=0.991;exitY=0.5;exitDx=0;exitDy=0;exitPerimeter=0;entryX=0;entryY=0.5;entryDx=0;entryDy=0;" parent="1" source="MqZcO9cvdvLjZUqEfx9N-4" target="MqZcO9cvdvLjZUqEfx9N-5" edge="1">
          <mxGeometry width="50" height="50" relative="1" as="geometry">
            <mxPoint x="400" y="380" as="sourcePoint" />
            <mxPoint x="180" y="120" as="targetPoint" />
          </mxGeometry>
        </mxCell>
        <mxCell id="MqZcO9cvdvLjZUqEfx9N-44" value="uity URL" style="rounded=1;whiteSpace=wrap;html=1;fillColor=#ffcccc;strokeColor=#36393d;" parent="1" vertex="1">
          <mxGeometry x="-70" y="533.5" width="100" height="40" as="geometry" />
        </mxCell>
        <mxCell id="MqZcO9cvdvLjZUqEfx9N-45" value="" style="edgeStyle=segmentEdgeStyle;endArrow=classic;html=1;rounded=0;exitX=1;exitY=0.5;exitDx=0;exitDy=0;entryX=0;entryY=0.5;entryDx=0;entryDy=0;" parent="1" source="MqZcO9cvdvLjZUqEfx9N-9" target="MqZcO9cvdvLjZUqEfx9N-4" edge="1">
          <mxGeometry width="50" height="50" relative="1" as="geometry">
            <mxPoint x="200" y="145" as="sourcePoint" />
            <mxPoint x="50" y="110" as="targetPoint" />
            <Array as="points">
              <mxPoint x="50" y="135" />
            </Array>
          </mxGeometry>
        </mxCell>
        <mxCell id="MqZcO9cvdvLjZUqEfx9N-47" value="" style="edgeStyle=segmentEdgeStyle;endArrow=classic;html=1;rounded=0;exitX=1;exitY=0.5;exitDx=0;exitDy=0;" parent="1" source="MqZcO9cvdvLjZUqEfx9N-18" edge="1">
          <mxGeometry width="50" height="50" relative="1" as="geometry">
            <mxPoint x="250" y="380" as="sourcePoint" />
            <mxPoint x="200" y="490" as="targetPoint" />
            <Array as="points">
              <mxPoint x="180" y="415" />
              <mxPoint x="180" y="490" />
            </Array>
          </mxGeometry>
        </mxCell>
        <mxCell id="MqZcO9cvdvLjZUqEfx9N-49" value="" style="edgeStyle=segmentEdgeStyle;endArrow=classic;html=1;rounded=0;entryX=0;entryY=0.5;entryDx=0;entryDy=0;" parent="1" target="MqZcO9cvdvLjZUqEfx9N-11" edge="1">
          <mxGeometry width="50" height="50" relative="1" as="geometry">
            <mxPoint x="170" y="490" as="sourcePoint" />
            <mxPoint x="190" y="460" as="targetPoint" />
            <Array as="points">
              <mxPoint x="180" y="490" />
            </Array>
          </mxGeometry>
        </mxCell>
        <mxCell id="MqZcO9cvdvLjZUqEfx9N-51" value="" style="edgeStyle=segmentEdgeStyle;endArrow=classic;html=1;rounded=0;exitX=1;exitY=0.5;exitDx=0;exitDy=0;entryX=0;entryY=0.5;entryDx=0;entryDy=0;" parent="1" source="MqZcO9cvdvLjZUqEfx9N-17" target="MqZcO9cvdvLjZUqEfx9N-10" edge="1">
          <mxGeometry width="50" height="50" relative="1" as="geometry">
            <mxPoint x="80" y="206" as="sourcePoint" />
            <mxPoint x="180" y="270" as="targetPoint" />
          </mxGeometry>
        </mxCell>
        <mxCell id="MqZcO9cvdvLjZUqEfx9N-52" value="" style="edgeStyle=segmentEdgeStyle;endArrow=classic;html=1;rounded=0;entryX=0;entryY=0.5;entryDx=0;entryDy=0;exitX=1;exitY=0.5;exitDx=0;exitDy=0;" parent="1" source="MqZcO9cvdvLjZUqEfx9N-20" target="MqZcO9cvdvLjZUqEfx9N-11" edge="1">
          <mxGeometry width="50" height="50" relative="1" as="geometry">
            <mxPoint x="180" y="510" as="sourcePoint" />
            <mxPoint x="180" y="342" as="targetPoint" />
            <Array as="points">
              <mxPoint x="170" y="550" />
              <mxPoint x="180" y="550" />
              <mxPoint x="180" y="490" />
            </Array>
          </mxGeometry>
        </mxCell>
        <mxCell id="MqZcO9cvdvLjZUqEfx9N-54" value="" style="edgeStyle=segmentEdgeStyle;endArrow=classic;html=1;rounded=0;exitX=1;exitY=0.5;exitDx=0;exitDy=0;entryX=0;entryY=0.5;entryDx=0;entryDy=0;" parent="1" source="MqZcO9cvdvLjZUqEfx9N-21" target="MqZcO9cvdvLjZUqEfx9N-12" edge="1">
          <mxGeometry width="50" height="50" relative="1" as="geometry">
            <mxPoint x="49" y="417" as="sourcePoint" />
            <mxPoint x="190" y="658" as="targetPoint" />
          </mxGeometry>
        </mxCell>
        <mxCell id="MqZcO9cvdvLjZUqEfx9N-55" value="" style="edgeStyle=segmentEdgeStyle;endArrow=classic;html=1;rounded=0;exitX=1;exitY=0.5;exitDx=0;exitDy=0;entryX=0;entryY=0.5;entryDx=0;entryDy=0;" parent="1" source="MqZcO9cvdvLjZUqEfx9N-44" target="MqZcO9cvdvLjZUqEfx9N-20" edge="1">
          <mxGeometry width="50" height="50" relative="1" as="geometry">
            <mxPoint x="54" y="501" as="sourcePoint" />
            <mxPoint x="60" y="533" as="targetPoint" />
            <Array as="points">
              <mxPoint x="40" y="554" />
              <mxPoint x="40" y="554" />
            </Array>
          </mxGeometry>
        </mxCell>
        <mxCell id="MqZcO9cvdvLjZUqEfx9N-56" value="" style="edgeStyle=segmentEdgeStyle;endArrow=classic;html=1;rounded=0;exitX=1;exitY=0.5;exitDx=0;exitDy=0;entryX=0;entryY=0.5;entryDx=0;entryDy=0;" parent="1" source="MqZcO9cvdvLjZUqEfx9N-22" target="MqZcO9cvdvLjZUqEfx9N-21" edge="1">
          <mxGeometry width="50" height="50" relative="1" as="geometry">
            <mxPoint x="210" y="702" as="sourcePoint" />
            <mxPoint x="60" y="658" as="targetPoint" />
            <Array as="points" />
          </mxGeometry>
        </mxCell>
        <mxCell id="MqZcO9cvdvLjZUqEfx9N-57" value="" style="edgeStyle=segmentEdgeStyle;endArrow=classic;html=1;rounded=0;entryX=0;entryY=0.5;entryDx=0;entryDy=0;exitX=1;exitY=0.5;exitDx=0;exitDy=0;" parent="1" source="MqZcO9cvdvLjZUqEfx9N-23" target="MqZcO9cvdvLjZUqEfx9N-22" edge="1">
          <mxGeometry width="50" height="50" relative="1" as="geometry">
            <mxPoint x="-70" y="688" as="sourcePoint" />
            <mxPoint x="-72" y="697" as="targetPoint" />
            <Array as="points" />
          </mxGeometry>
        </mxCell>
        <mxCell id="MqZcO9cvdvLjZUqEfx9N-58" value="" style="edgeStyle=segmentEdgeStyle;endArrow=classic;html=1;rounded=0;entryX=1;entryY=0.5;entryDx=0;entryDy=0;" parent="1" target="MqZcO9cvdvLjZUqEfx9N-13" edge="1">
          <mxGeometry width="50" height="50" relative="1" as="geometry">
            <mxPoint x="660" y="-70" as="sourcePoint" />
            <mxPoint x="620" y="-10" as="targetPoint" />
            <Array as="points">
              <mxPoint x="640" y="-70" />
              <mxPoint x="640" y="-15" />
            </Array>
          </mxGeometry>
        </mxCell>
        <mxCell id="MqZcO9cvdvLjZUqEfx9N-59" value="" style="edgeStyle=segmentEdgeStyle;endArrow=classic;html=1;rounded=0;entryX=1;entryY=0.5;entryDx=0;entryDy=0;" parent="1" target="MqZcO9cvdvLjZUqEfx9N-13" edge="1">
          <mxGeometry width="50" height="50" relative="1" as="geometry">
            <mxPoint x="660" y="-15" as="sourcePoint" />
            <mxPoint x="630" y="-60" as="targetPoint" />
            <Array as="points">
              <mxPoint x="660" y="-15" />
            </Array>
          </mxGeometry>
        </mxCell>
        <mxCell id="MqZcO9cvdvLjZUqEfx9N-61" value="" style="edgeStyle=segmentEdgeStyle;endArrow=classic;html=1;rounded=0;exitX=0.001;exitY=0.48;exitDx=0;exitDy=0;entryX=1;entryY=0.5;entryDx=0;entryDy=0;exitPerimeter=0;" parent="1" source="MqZcO9cvdvLjZUqEfx9N-29" target="MqZcO9cvdvLjZUqEfx9N-13" edge="1">
          <mxGeometry width="50" height="50" relative="1" as="geometry">
            <mxPoint x="580" y="80" as="sourcePoint" />
            <mxPoint x="620" y="-10" as="targetPoint" />
            <Array as="points">
              <mxPoint x="640" y="49" />
              <mxPoint x="640" y="-15" />
            </Array>
          </mxGeometry>
        </mxCell>
        <mxCell id="MqZcO9cvdvLjZUqEfx9N-62" value="" style="edgeStyle=segmentEdgeStyle;endArrow=classic;html=1;rounded=0;exitX=0.5;exitY=0;exitDx=0;exitDy=0;" parent="1" source="MqZcO9cvdvLjZUqEfx9N-6" edge="1">
          <mxGeometry width="50" height="50" relative="1" as="geometry">
            <mxPoint x="570" y="560" as="sourcePoint" />
            <mxPoint x="400" y="310" as="targetPoint" />
            <Array as="points">
              <mxPoint x="400" y="650" />
              <mxPoint x="400" y="650" />
            </Array>
          </mxGeometry>
        </mxCell>
        <mxCell id="MqZcO9cvdvLjZUqEfx9N-65" value="Neuron Health" style="rounded=1;whiteSpace=wrap;html=1;fillColor=#e51400;strokeColor=#B20000;fontColor=#ffffff;" parent="1" vertex="1">
          <mxGeometry x="660" y="540" width="100" height="40" as="geometry" />
        </mxCell>
        <mxCell id="MqZcO9cvdvLjZUqEfx9N-66" value="" style="edgeStyle=segmentEdgeStyle;endArrow=classic;html=1;rounded=0;entryX=0;entryY=0.5;entryDx=0;entryDy=0;exitX=1;exitY=0.5;exitDx=0;exitDy=0;" parent="1" source="MqZcO9cvdvLjZUqEfx9N-15" target="Uy45JR7O-fNmlKlKrN1P-25" edge="1">
          <mxGeometry width="50" height="50" relative="1" as="geometry">
            <mxPoint x="690" y="606" as="sourcePoint" />
            <mxPoint x="260" y="416" as="targetPoint" />
            <Array as="points">
              <mxPoint x="660" y="486" />
            </Array>
          </mxGeometry>
        </mxCell>
        <mxCell id="MqZcO9cvdvLjZUqEfx9N-67" value="&lt;span style=&quot;&quot;&gt;Asset Management&lt;/span&gt;" style="rounded=1;whiteSpace=wrap;html=1;fillColor=#f9f7ed;strokeColor=#36393d;" parent="1" vertex="1">
          <mxGeometry x="-60" y="395" width="90" height="40" as="geometry" />
        </mxCell>
        <mxCell id="MqZcO9cvdvLjZUqEfx9N-68" value="" style="edgeStyle=segmentEdgeStyle;endArrow=classic;html=1;rounded=0;exitX=1;exitY=0.5;exitDx=0;exitDy=0;entryX=0.006;entryY=0.426;entryDx=0;entryDy=0;entryPerimeter=0;" parent="1" source="MqZcO9cvdvLjZUqEfx9N-67" target="MqZcO9cvdvLjZUqEfx9N-18" edge="1">
          <mxGeometry width="50" height="50" relative="1" as="geometry">
            <mxPoint x="20" y="560" as="sourcePoint" />
            <mxPoint x="80" y="390" as="targetPoint" />
            <Array as="points">
              <mxPoint x="30" y="415" />
            </Array>
          </mxGeometry>
        </mxCell>
        <mxCell id="MqZcO9cvdvLjZUqEfx9N-69" value="HK" style="ellipse;shape=cloud;whiteSpace=wrap;html=1;" parent="1" vertex="1">
          <mxGeometry x="730" y="-110" width="75" height="50" as="geometry" />
        </mxCell>
        <mxCell id="MqZcO9cvdvLjZUqEfx9N-70" value="HK" style="ellipse;shape=cloud;whiteSpace=wrap;html=1;" parent="1" vertex="1">
          <mxGeometry x="740" y="-45" width="75" height="50" as="geometry" />
        </mxCell>
        <mxCell id="MqZcO9cvdvLjZUqEfx9N-71" value="HK" style="ellipse;shape=cloud;whiteSpace=wrap;html=1;" parent="1" vertex="1">
          <mxGeometry x="740" y="30" width="75" height="50" as="geometry" />
        </mxCell>
        <mxCell id="Uy45JR7O-fNmlKlKrN1P-3" value="VAV heatmap analysis" style="rounded=1;whiteSpace=wrap;html=1;fillColor=#e51400;strokeColor=#B20000;fontColor=#ffffff;" vertex="1" parent="1">
          <mxGeometry x="660" y="100" width="100" height="40" as="geometry" />
        </mxCell>
        <mxCell id="Uy45JR7O-fNmlKlKrN1P-4" value="HK" style="ellipse;shape=cloud;whiteSpace=wrap;html=1;" vertex="1" parent="1">
          <mxGeometry x="740" y="100" width="75" height="50" as="geometry" />
        </mxCell>
        <mxCell id="Uy45JR7O-fNmlKlKrN1P-5" value="&lt;div&gt;Pump Analysis&lt;/div&gt;" style="rounded=1;whiteSpace=wrap;html=1;fillColor=#e51400;strokeColor=#B20000;fontColor=#ffffff;" vertex="1" parent="1">
          <mxGeometry x="60" y="-10" width="120" height="40" as="geometry" />
        </mxCell>
        <mxCell id="Uy45JR7O-fNmlKlKrN1P-6" value="&lt;div&gt;AHU Air side Analysis (embed Heatmap)&lt;/div&gt;" style="rounded=1;whiteSpace=wrap;html=1;fillColor=#e51400;strokeColor=#B20000;fontColor=#ffffff;" vertex="1" parent="1">
          <mxGeometry x="60" y="-60" width="120" height="40" as="geometry" />
        </mxCell>
        <mxCell id="Uy45JR7O-fNmlKlKrN1P-7" value="&lt;div&gt;People Counting Analysis&lt;/div&gt;" style="rounded=1;whiteSpace=wrap;html=1;fillColor=#e51400;strokeColor=#B20000;fontColor=#ffffff;" vertex="1" parent="1">
          <mxGeometry x="60" y="50" width="120" height="40" as="geometry" />
        </mxCell>
        <mxCell id="Uy45JR7O-fNmlKlKrN1P-9" value="&lt;div&gt;Carbon (6D)&lt;/div&gt;" style="rounded=1;whiteSpace=wrap;html=1;fillColor=#e51400;strokeColor=#B20000;fontColor=#ffffff;" vertex="1" parent="1">
          <mxGeometry x="-60" y="310" width="100" height="40" as="geometry" />
        </mxCell>
        <mxCell id="Uy45JR7O-fNmlKlKrN1P-10" value="&lt;div&gt;Schedule (4D)&lt;/div&gt;" style="rounded=1;whiteSpace=wrap;html=1;fillColor=#e51400;strokeColor=#B20000;fontColor=#ffffff;" vertex="1" parent="1">
          <mxGeometry x="-60" y="260" width="100" height="40" as="geometry" />
        </mxCell>
        <mxCell id="Uy45JR7O-fNmlKlKrN1P-11" value="&lt;div&gt;5D - Cost&lt;/div&gt;" style="rounded=1;whiteSpace=wrap;html=1;fillColor=#e51400;strokeColor=#B20000;fontColor=#ffffff;" vertex="1" parent="1">
          <mxGeometry x="-60" y="210" width="100" height="40" as="geometry" />
        </mxCell>
        <mxCell id="Uy45JR7O-fNmlKlKrN1P-12" value="&lt;div&gt;Digital Experience&lt;/div&gt;" style="rounded=1;whiteSpace=wrap;html=1;fillColor=#e51400;strokeColor=#B20000;fontColor=#ffffff;" vertex="1" parent="1">
          <mxGeometry x="200" y="530" width="100" height="40" as="geometry" />
        </mxCell>
        <mxCell id="Uy45JR7O-fNmlKlKrN1P-13" value="Energy &amp;amp; Carbon Management" style="rounded=1;whiteSpace=wrap;html=1;fillColor=#e51400;strokeColor=#B20000;fontColor=#ffffff;" vertex="1" parent="1">
          <mxGeometry x="660" y="190" width="100" height="40" as="geometry" />
        </mxCell>
        <mxCell id="Uy45JR7O-fNmlKlKrN1P-14" value="Utility Management" style="rounded=1;whiteSpace=wrap;html=1;fillColor=#e51400;strokeColor=#B20000;fontColor=#ffffff;" vertex="1" parent="1">
          <mxGeometry x="660" y="240" width="100" height="40" as="geometry" />
        </mxCell>
        <mxCell id="Uy45JR7O-fNmlKlKrN1P-15" value="Tenant Comfort (VAV Heatmap)" style="rounded=1;whiteSpace=wrap;html=1;fillColor=#e51400;strokeColor=#B20000;fontColor=#ffffff;" vertex="1" parent="1">
          <mxGeometry x="660" y="290" width="100" height="40" as="geometry" />
        </mxCell>
        <mxCell id="Uy45JR7O-fNmlKlKrN1P-16" value="Viper" style="rounded=1;whiteSpace=wrap;html=1;fillColor=#e51400;strokeColor=#B20000;fontColor=#ffffff;" vertex="1" parent="1">
          <mxGeometry x="660" y="340" width="100" height="40" as="geometry" />
        </mxCell>
        <mxCell id="Uy45JR7O-fNmlKlKrN1P-17" value="Carbon - Operation" style="rounded=1;whiteSpace=wrap;html=1;fillColor=#e51400;strokeColor=#B20000;fontColor=#ffffff;" vertex="1" parent="1">
          <mxGeometry x="70" y="700" width="100" height="40" as="geometry" />
        </mxCell>
        <mxCell id="Uy45JR7O-fNmlKlKrN1P-18" value="Energy Benchmarking" style="rounded=1;whiteSpace=wrap;html=1;fillColor=#e51400;strokeColor=#B20000;fontColor=#ffffff;" vertex="1" parent="1">
          <mxGeometry x="70" y="750" width="100" height="40" as="geometry" />
        </mxCell>
        <mxCell id="Uy45JR7O-fNmlKlKrN1P-19" value="Microclimate" style="rounded=1;whiteSpace=wrap;html=1;fillColor=#e51400;strokeColor=#B20000;fontColor=#ffffff;" vertex="1" parent="1">
          <mxGeometry x="70" y="800" width="100" height="40" as="geometry" />
        </mxCell>
        <mxCell id="Uy45JR7O-fNmlKlKrN1P-20" value="Water Mangement" style="rounded=1;whiteSpace=wrap;html=1;fillColor=#e51400;strokeColor=#B20000;fontColor=#ffffff;" vertex="1" parent="1">
          <mxGeometry x="70" y="850" width="100" height="40" as="geometry" />
        </mxCell>
        <mxCell id="Uy45JR7O-fNmlKlKrN1P-21" value="Recycle Material" style="rounded=1;whiteSpace=wrap;html=1;fillColor=#e51400;strokeColor=#B20000;fontColor=#ffffff;" vertex="1" parent="1">
          <mxGeometry x="70" y="900" width="100" height="40" as="geometry" />
        </mxCell>
        <mxCell id="Uy45JR7O-fNmlKlKrN1P-22" value="Waste Management" style="rounded=1;whiteSpace=wrap;html=1;fillColor=#e51400;strokeColor=#B20000;fontColor=#ffffff;" vertex="1" parent="1">
          <mxGeometry x="70" y="950" width="100" height="40" as="geometry" />
        </mxCell>
        <mxCell id="Uy45JR7O-fNmlKlKrN1P-23" value="Renewable Energy" style="rounded=1;whiteSpace=wrap;html=1;fillColor=#e51400;strokeColor=#B20000;fontColor=#ffffff;" vertex="1" parent="1">
          <mxGeometry x="-50" y="700" width="100" height="40" as="geometry" />
        </mxCell>
        <mxCell id="Uy45JR7O-fNmlKlKrN1P-24" value="Carbon - embody" style="rounded=1;whiteSpace=wrap;html=1;fillColor=#e51400;strokeColor=#B20000;fontColor=#ffffff;" vertex="1" parent="1">
          <mxGeometry x="-50" y="750" width="100" height="40" as="geometry" />
        </mxCell>
        <mxCell id="Uy45JR7O-fNmlKlKrN1P-25" value="&lt;span style=&quot;&quot;&gt;Asset Management【RFID】&lt;/span&gt;" style="rounded=1;whiteSpace=wrap;html=1;fillColor=#f9f7ed;strokeColor=#36393d;" vertex="1" parent="1">
          <mxGeometry x="660" y="466" width="100" height="40" as="geometry" />
        </mxCell>
        <mxCell id="Uy45JR7O-fNmlKlKrN1P-29" value="HK" style="ellipse;shape=cloud;whiteSpace=wrap;html=1;" vertex="1" parent="1">
          <mxGeometry x="115" y="610" width="75" height="50" as="geometry" />
        </mxCell>
        <mxCell id="Uy45JR7O-fNmlKlKrN1P-30" value="HK" style="ellipse;shape=cloud;whiteSpace=wrap;html=1;" vertex="1" parent="1">
          <mxGeometry x="-5" y="610" width="75" height="50" as="geometry" />
        </mxCell>
        <mxCell id="Uy45JR7O-fNmlKlKrN1P-31" value="HK" style="ellipse;shape=cloud;whiteSpace=wrap;html=1;" vertex="1" parent="1">
          <mxGeometry x="-127.5" y="610" width="75" height="50" as="geometry" />
        </mxCell>
      </root>
    </mxGraphModel>
  </diagram>
</mxfile>
